<?xml version="1.0" standalone="no"?>
<!DOCTYPE svg PUBLIC "-//W3C//DTD SVG 20010904//EN"
 "http://www.w3.org/TR/2001/REC-SVG-20010904/DTD/svg10.dtd">
<svg version="1.0" xmlns="http://www.w3.org/2000/svg"
 width="1024.000000pt" height="1024.000000pt" viewBox="0 0 1024.000000 1024.000000"
 preserveAspectRatio="xMidYMid meet">

<g transform="translate(0.000000,1024.000000) scale(0.100000,-0.100000)"
fill="#000000" stroke="none">
<path d="M4792 8134 c-972 -106 -1836 -676 -2320 -1529 -183 -324 -316 -734
-364 -1125 -20 -164 -17 -586 5 -745 53 -376 151 -688 314 -1007 432 -845
1244 -1437 2189 -1597 367 -62 795 -52 1144 25 268 60 458 127 715 254 817
401 1407 1159 1604 2057 100 455 93 950 -19 1393 -291 1151 -1212 2020 -2375
2240 -265 50 -623 64 -893 34z m631 -1569 c133 -175 244 -323 245 -327 2 -4
-62 -8 -141 -8 l-145 0 -122 143 c-67 78 -125 143 -130 145 -4 2 -47 -43 -94
-100 -85 -101 -87 -104 -82 -146 7 -51 27 -93 75 -150 47 -57 188 -175 200
-168 5 3 15 -2 22 -11 8 -9 12 -17 9 -17 -2 -1 41 -45 97 -99 63 -62 112 -118
131 -155 17 -31 32 -52 32 -46 0 17 -36 116 -59 161 l-21 42 38 31 c63 52 253
142 268 127 3 -3 -2 -31 -10 -63 -8 -33 -24 -113 -35 -179 -41 -245 -110 -403
-226 -520 -70 -69 -174 -132 -249 -149 l-29 -7 22 33 c96 145 121 277 75 387
-19 45 -30 52 -63 35 -40 -21 -86 -17 -119 11 -17 14 -38 25 -48 26 -29 1 -89
25 -89 35 0 5 -4 14 -8 21 -4 7 -5 24 -1 39 4 15 3 25 -2 22 -5 -3 -9 20 -10
52 0 56 1 58 20 48 21 -11 21 -11 2 11 -15 16 -16 21 -5 21 8 0 19 -4 25 -8 5
-4 -37 37 -93 93 -83 81 -108 114 -137 174 -19 40 -38 93 -42 117 l-6 44 -64
0 c-35 0 -64 3 -64 7 0 3 120 166 267 361 l267 355 29 -34 c15 -19 137 -178
270 -354z m-787 -620 c39 -19 95 -53 122 -75 l51 -40 -29 -62 c-33 -71 -50
-146 -50 -222 l0 -51 59 3 c101 6 191 -56 227 -155 19 -53 19 -263 0 -263 -32
0 -158 75 -218 130 -80 73 -125 139 -171 251 -33 79 -48 140 -96 390 -12 59
-24 115 -28 124 -5 16 -2 17 27 12 18 -4 66 -23 106 -42z m-238 -101 c29 -6
31 -9 42 -78 18 -110 58 -263 91 -344 59 -147 145 -245 273 -307 77 -38 68
-44 -28 -19 -111 29 -207 87 -293 178 -70 74 -87 100 -165 257 -48 96 -107
203 -132 237 -50 68 -52 60 19 75 32 7 160 8 193 1z m1698 -9 c21 -6 19 -10
-27 -72 -27 -35 -77 -122 -110 -191 -75 -157 -153 -276 -220 -336 -89 -80
-219 -142 -334 -159 -36 -5 -32 -2 34 29 193 90 320 309 371 639 7 44 18 86
24 94 8 11 35 12 126 8 63 -3 125 -9 136 -12z m-1929 -1118 c61 -32 67 -38 49
-62 -13 -18 -14 -18 -42 2 -76 54 -208 67 -283 29 -67 -35 -91 -128 -51 -194
24 -39 71 -62 189 -92 100 -25 175 -61 196 -94 40 -61 41 -149 1 -209 -68
-104 -277 -117 -419 -27 -50 32 -66 55 -49 72 7 7 26 -2 62 -26 133 -92 301
-85 367 14 41 60 24 139 -40 178 -18 12 -83 35 -146 52 -155 42 -195 66 -220
133 -35 93 9 193 104 239 62 29 211 21 282 -15z m1113 -193 c0 -125 4 -224 9
-222 5 2 80 79 167 173 88 93 182 194 209 223 43 45 55 53 80 50 29 -3 25 -8
-124 -166 -110 -117 -150 -166 -143 -175 5 -6 74 -93 152 -192 79 -99 148
-186 153 -192 7 -10 2 -13 -21 -13 -25 0 -39 11 -88 73 -32 39 -100 123 -151
184 l-94 112 -71 -75 -71 -75 -1 -107 -1 -107 -27 -3 -28 -3 0 364 c0 200 3
367 7 370 3 4 15 7 25 7 17 0 18 -14 18 -226z m-810 -9 c0 -124 5 -247 11
-275 48 -222 361 -258 457 -52 26 56 27 62 30 305 l4 247 25 0 25 0 -4 -252
c-5 -286 -10 -314 -78 -391 -55 -63 -124 -91 -220 -91 -97 1 -165 29 -220 92
-65 73 -72 112 -78 395 l-4 247 26 0 26 0 0 -225z m1520 55 l0 -170 233 2 232
3 3 168 c2 159 3 167 22 167 20 0 20 -8 20 -365 0 -352 -1 -365 -19 -365 -16
0 -20 10 -26 71 -4 39 -4 118 0 175 l7 104 -236 0 -236 0 0 -170 0 -170 -25 0
-25 0 0 360 0 360 25 0 25 0 0 -170z m530 -761 c0 -19 -24 -19 -1395 -19
l-1395 0 0 20 0 21 1395 -1 c1370 -1 1395 -2 1395 -21z"/>
</g>
</svg>
